  0
SECTION
  2
HEADER
  9
$ACADVER
  1
AC1009
  9
$INSBASE
 10
0.0
 20
0.0
 30
0.0
  9
$EXTMIN
 10
0.0
 20
0.0
 30
0.0
  9
$EXTMAX
 10
0.0
 20
0.0
 30
0.0
  0
ENDSEC
  0
SECTION
  2
TABLES
  0
TABLE
  2
VPORT
 70
0
  0
ENDTAB
  0
TABLE
  2
LTYPE
 70
1
  0
LTYPE
  2
CONTINUOUS
 70
0
  3
Solid line
 72
65
 73
0
 40
0.0
  0
ENDTAB
  0
TABLE
  2
LAYER
 70
1
  0
LAYER
  2
0
 70
64
 62
7
  6
continuous
  0
ENDTAB
  0
TABLE
  2
STYLE
 70
1
  0
STYLE
  2
STANDARD
 70
0
 40
0
 41
1.0
 50
0.0
 71
0
 42
1
 3
ARIAL.TTF
 4

  0
ENDTAB
  0
TABLE
  2
VIEW
 70
0
  0
ENDTAB
  0
ENDSEC
  0
SECTION
  2
BLOCKS
  0
BLOCK
  8
0
  2
SKETCH038
 70
0
 10
0.0
 20
0.0
 30
0.0
  3
SKETCH038
  0
CIRCLE
  8
0
 62
7
 10
26.1016543142
 20
66.7447607082
 30
8.5
 40
1.0
  0
CIRCLE
  8
0
 62
7
 10
328.5420898
 20
9.56484099974
 30
8.5
 40
1.0
  0
CIRCLE
  8
0
 62
7
 10
261.831667864
 20
9.57581310674
 30
8.5
 40
1.0
  0
CIRCLE
  8
0
 62
7
 10
266.6295898
 20
109.577341
 30
8.5
 40
1.0
  0
CIRCLE
  8
0
 62
7
 10
142.7820898
 20
109.577341
 30
8.5
 40
1.0
  0
CIRCLE
  8
0
 62
7
 10
23.7407595388
 20
9.59905224274
 30
8.5
 40
1.0
  0
CIRCLE
  8
0
 62
7
 10
18.9822573415
 20
109.623255734
 30
8.5
 40
1.0
  0
CIRCLE
  8
0
 62
7
 10
29.4865477315
 20
47.7545263332
 30
8.5
 40
1.5
  0
POLYLINE
  8
0
 62
7
 70
1
 66
1
 10
0.0
 20
0.0
 30
0.0
  0
VERTEX
  8
0
 10
7.2170898
 20
59.714841
 30
8.5
  0
VERTEX
  8
0
 10
21.2170898
 20
59.714841
 30
8.5
  0
VERTEX
  8
0
 10
21.2170898
 20
73.714841
 30
8.5
  0
VERTEX
  8
0
 10
7.2170898
 20
73.714841
 30
8.5
  0
SEQEND
  8
0
  0
POLYLINE
  8
0
 62
7
 70
1
 66
1
 10
0.0
 20
0.0
 30
0.0
  0
VERTEX
  8
0
 10
31.0295898
 20
59.714841
 30
8.5
  0
VERTEX
  8
0
 10
45.0295898
 20
59.714841
 30
8.5
  0
VERTEX
  8
0
 10
45.0295898
 20
73.714841
 30
8.5
  0
VERTEX
  8
0
 10
31.0295898
 20
73.714841
 30
8.5
  0
SEQEND
  8
0
  0
POLYLINE
  8
0
 62
7
 70
1
 66
1
 10
0.0
 20
0.0
 30
0.0
  0
VERTEX
  8
0
 10
50.0795898
 20
59.714841
 30
8.5
  0
VERTEX
  8
0
 10
64.0795898
 20
59.714841
 30
8.5
  0
VERTEX
  8
0
 10
64.0795898
 20
73.714841
 30
8.5
  0
VERTEX
  8
0
 10
50.0795898
 20
73.714841
 30
8.5
  0
SEQEND
  8
0
  0
POLYLINE
  8
0
 62
7
 70
1
 66
1
 10
0.0
 20
0.0
 30
0.0
  0
VERTEX
  8
0
 10
69.1295898
 20
59.714841
 30
8.5
  0
VERTEX
  8
0
 10
83.1295898
 20
59.714841
 30
8.5
  0
VERTEX
  8
0
 10
83.1295898
 20
73.714841
 30
8.5
  0
VERTEX
  8
0
 10
69.1295898
 20
73.714841
 30
8.5
  0
SEQEND
  8
0
  0
POLYLINE
  8
0
 62
7
 70
1
 66
1
 10
0.0
 20
0.0
 30
0.0
  0
VERTEX
  8
0
 10
88.1795898
 20
59.714841
 30
8.5
  0
VERTEX
  8
0
 10
102.1795898
 20
59.714841
 30
8.5
  0
VERTEX
  8
0
 10
102.1795898
 20
73.714841
 30
8.5
  0
VERTEX
  8
0
 10
88.1795898
 20
73.714841
 30
8.5
  0
SEQEND
  8
0
  0
POLYLINE
  8
0
 62
7
 70
1
 66
1
 10
0.0
 20
0.0
 30
0.0
  0
VERTEX
  8
0
 10
107.2295898
 20
59.714841
 30
8.5
  0
VERTEX
  8
0
 10
121.2295898
 20
59.714841
 30
8.5
  0
VERTEX
  8
0
 10
121.2295898
 20
73.714841
 30
8.5
  0
VERTEX
  8
0
 10
107.2295898
 20
73.714841
 30
8.5
  0
SEQEND
  8
0
  0
POLYLINE
  8
0
 62
7
 70
1
 66
1
 10
0.0
 20
0.0
 30
0.0
  0
VERTEX
  8
0
 10
126.2795898
 20
59.714841
 30
8.5
  0
VERTEX
  8
0
 10
140.2795898
 20
59.714841
 30
8.5
  0
VERTEX
  8
0
 10
140.2795898
 20
73.714841
 30
8.5
  0
VERTEX
  8
0
 10
126.2795898
 20
73.714841
 30
8.5
  0
SEQEND
  8
0
  0
POLYLINE
  8
0
 62
7
 70
1
 66
1
 10
0.0
 20
0.0
 30
0.0
  0
VERTEX
  8
0
 10
145.3295898
 20
59.714841
 30
8.5
  0
VERTEX
  8
0
 10
159.3295898
 20
59.714841
 30
8.5
  0
VERTEX
  8
0
 10
159.3295898
 20
73.714841
 30
8.5
  0
VERTEX
  8
0
 10
145.3295898
 20
73.714841
 30
8.5
  0
SEQEND
  8
0
  0
POLYLINE
  8
0
 62
7
 70
1
 66
1
 10
0.0
 20
0.0
 30
0.0
  0
VERTEX
  8
0
 10
164.3795898
 20
59.714841
 30
8.5
  0
VERTEX
  8
0
 10
178.3795898
 20
59.714841
 30
8.5
  0
VERTEX
  8
0
 10
178.3795898
 20
73.714841
 30
8.5
  0
VERTEX
  8
0
 10
164.3795898
 20
73.714841
 30
8.5
  0
SEQEND
  8
0
  0
POLYLINE
  8
0
 62
7
 70
1
 66
1
 10
0.0
 20
0.0
 30
0.0
  0
VERTEX
  8
0
 10
183.4295898
 20
59.714841
 30
8.5
  0
VERTEX
  8
0
 10
197.4295898
 20
59.714841
 30
8.5
  0
VERTEX
  8
0
 10
197.4295898
 20
73.714841
 30
8.5
  0
VERTEX
  8
0
 10
183.4295898
 20
73.714841
 30
8.5
  0
SEQEND
  8
0
  0
POLYLINE
  8
0
 62
7
 70
1
 66
1
 10
0.0
 20
0.0
 30
0.0
  0
VERTEX
  8
0
 10
202.4795898
 20
59.714841
 30
8.5
  0
VERTEX
  8
0
 10
216.4795898
 20
59.714841
 30
8.5
  0
VERTEX
  8
0
 10
216.4795898
 20
73.714841
 30
8.5
  0
VERTEX
  8
0
 10
202.4795898
 20
73.714841
 30
8.5
  0
SEQEND
  8
0
  0
POLYLINE
  8
0
 62
7
 70
1
 66
1
 10
0.0
 20
0.0
 30
0.0
  0
VERTEX
  8
0
 10
221.5295898
 20
59.714841
 30
8.5
  0
VERTEX
  8
0
 10
235.5295898
 20
59.714841
 30
8.5
  0
VERTEX
  8
0
 10
235.5295898
 20
73.714841
 30
8.5
  0
VERTEX
  8
0
 10
221.5295898
 20
73.714841
 30
8.5
  0
SEQEND
  8
0
  0
POLYLINE
  8
0
 62
7
 70
1
 66
1
 10
0.0
 20
0.0
 30
0.0
  0
VERTEX
  8
0
 10
240.5795898
 20
59.714841
 30
8.5
  0
VERTEX
  8
0
 10
254.5795898
 20
59.714841
 30
8.5
  0
VERTEX
  8
0
 10
254.5795898
 20
73.714841
 30
8.5
  0
VERTEX
  8
0
 10
240.5795898
 20
73.714841
 30
8.5
  0
SEQEND
  8
0
  0
POLYLINE
  8
0
 62
7
 70
1
 66
1
 10
0.0
 20
0.0
 30
0.0
  0
VERTEX
  8
0
 10
264.3920898
 20
59.714841
 30
8.5
  0
VERTEX
  8
0
 10
278.3920898
 20
59.714841
 30
8.5
  0
VERTEX
  8
0
 10
278.3920898
 20
73.714841
 30
8.5
  0
VERTEX
  8
0
 10
264.3920898
 20
73.714841
 30
8.5
  0
SEQEND
  8
0
  0
POLYLINE
  8
0
 62
7
 70
1
 66
1
 10
0.0
 20
0.0
 30
0.0
  0
VERTEX
  8
0
 10
242.331433696
 20
30.900841
 30
8.5
  0
VERTEX
  8
0
 10
242.331433696
 20
28.106841
 30
8.5
  0
VERTEX
  8
0
 10
243.331433696
 20
28.106841
 30
8.5
  0
VERTEX
  8
0
 10
243.331433696
 20
22.010841
 30
8.5
  0
VERTEX
  8
0
 10
245.131446934
 20
22.010841
 30
8.5
  0
VERTEX
  8
0
 10
245.131446934
 20
20.842441
 30
8.5
  0
VERTEX
  8
0
 10
248.179446934
 20
20.842441
 30
8.5
  0
VERTEX
  8
0
 10
248.179446934
 20
22.010841
 30
8.5
  0
VERTEX
  8
0
 10
249.986233696
 20
22.010841
 30
8.5
  0
VERTEX
  8
0
 10
249.986233696
 20
22.7982409634
 30
8.5
  0
VERTEX
  8
0
 10
252.4858398
 20
22.7982409634
 30
8.5
  0
VERTEX
  8
0
 10
252.4858398
 20
21.614841
 30
8.5
  0
VERTEX
  8
0
 10
266.4858398
 20
21.614841
 30
8.5
  0
VERTEX
  8
0
 10
266.4858398
 20
22.7982409634
 30
8.5
  0
VERTEX
  8
0
 10
268.985433697
 20
22.7982409634
 30
8.5
  0
VERTEX
  8
0
 10
268.985433697
 20
22.010841
 30
8.5
  0
VERTEX
  8
0
 10
270.792220459
 20
22.010841
 30
8.5
  0
VERTEX
  8
0
 10
270.792220459
 20
20.842441
 30
8.5
  0
VERTEX
  8
0
 10
273.840220459
 20
20.842441
 30
8.5
  0
VERTEX
  8
0
 10
273.840220459
 20
22.010841
 30
8.5
  0
VERTEX
  8
0
 10
275.640233696
 20
22.010841
 30
8.5
  0
VERTEX
  8
0
 10
275.640233696
 20
28.106841
 30
8.5
  0
VERTEX
  8
0
 10
276.640233696
 20
28.106841
 30
8.5
  0
VERTEX
  8
0
 10
276.640233696
 20
30.900841
 30
8.5
  0
VERTEX
  8
0
 10
275.640233696
 20
30.900841
 30
8.5
  0
VERTEX
  8
0
 10
275.640233696
 20
34.304441
 30
8.5
  0
VERTEX
  8
0
 10
273.840220459
 20
34.304441
 30
8.5
  0
VERTEX
  8
0
 10
270.792220459
 20
34.304441
 30
8.5
  0
VERTEX
  8
0
 10
268.985433697
 20
34.304441
 30
8.5
  0
VERTEX
  8
0
 10
268.985433697
 20
33.491641
 30
8.5
  0
VERTEX
  8
0
 10
266.4858398
 20
33.491641
 30
8.5
  0
VERTEX
  8
0
 10
266.4858398
 20
35.614841
 30
8.5
  0
VERTEX
  8
0
 10
252.4858398
 20
35.614841
 30
8.5
  0
VERTEX
  8
0
 10
252.4858398
 20
33.491641
 30
8.5
  0
VERTEX
  8
0
 10
249.986233696
 20
33.491641
 30
8.5
  0
VERTEX
  8
0
 10
249.986233696
 20
34.304441
 30
8.5
  0
VERTEX
  8
0
 10
248.179446934
 20
34.304441
 30
8.5
  0
VERTEX
  8
0
 10
245.131446934
 20
34.304441
 30
8.5
  0
VERTEX
  8
0
 10
243.331433696
 20
34.304441
 30
8.5
  0
VERTEX
  8
0
 10
243.331433696
 20
30.900841
 30
8.5
  0
SEQEND
  8
0
  0
POLYLINE
  8
0
 62
7
 70
1
 66
1
 10
0.0
 20
0.0
 30
0.0
  0
VERTEX
  8
0
 10
45.3170898
 20
21.614841
 30
8.5
  0
VERTEX
  8
0
 10
59.3170898
 20
21.614841
 30
8.5
  0
VERTEX
  8
0
 10
59.3170898
 20
35.614841
 30
8.5
  0
VERTEX
  8
0
 10
45.3170898
 20
35.614841
 30
8.5
  0
SEQEND
  8
0
  0
POLYLINE
  8
0
 62
7
 70
1
 66
1
 10
0.0
 20
0.0
 30
0.0
  0
VERTEX
  8
0
 10
64.3670898
 20
21.614841
 30
8.5
  0
VERTEX
  8
0
 10
78.3670898
 20
21.614841
 30
8.5
  0
VERTEX
  8
0
 10
78.3670898
 20
35.614841
 30
8.5
  0
VERTEX
  8
0
 10
64.3670898
 20
35.614841
 30
8.5
  0
SEQEND
  8
0
  0
POLYLINE
  8
0
 62
7
 70
1
 66
1
 10
0.0
 20
0.0
 30
0.0
  0
VERTEX
  8
0
 10
83.4170898
 20
21.614841
 30
8.5
  0
VERTEX
  8
0
 10
97.4170898
 20
21.614841
 30
8.5
  0
VERTEX
  8
0
 10
97.4170898
 20
35.614841
 30
8.5
  0
VERTEX
  8
0
 10
83.4170898
 20
35.614841
 30
8.5
  0
SEQEND
  8
0
  0
POLYLINE
  8
0
 62
7
 70
1
 66
1
 10
0.0
 20
0.0
 30
0.0
  0
VERTEX
  8
0
 10
102.4670898
 20
21.614841
 30
8.5
  0
VERTEX
  8
0
 10
116.4670898
 20
21.614841
 30
8.5
  0
VERTEX
  8
0
 10
116.4670898
 20
35.614841
 30
8.5
  0
VERTEX
  8
0
 10
102.4670898
 20
35.614841
 30
8.5
  0
SEQEND
  8
0
  0
POLYLINE
  8
0
 62
7
 70
1
 66
1
 10
0.0
 20
0.0
 30
0.0
  0
VERTEX
  8
0
 10
121.5170898
 20
21.614841
 30
8.5
  0
VERTEX
  8
0
 10
135.5170898
 20
21.614841
 30
8.5
  0
VERTEX
  8
0
 10
135.5170898
 20
35.614841
 30
8.5
  0
VERTEX
  8
0
 10
121.5170898
 20
35.614841
 30
8.5
  0
SEQEND
  8
0
  0
POLYLINE
  8
0
 62
7
 70
1
 66
1
 10
0.0
 20
0.0
 30
0.0
  0
VERTEX
  8
0
 10
140.5670898
 20
21.614841
 30
8.5
  0
VERTEX
  8
0
 10
154.5670898
 20
21.614841
 30
8.5
  0
VERTEX
  8
0
 10
154.5670898
 20
35.614841
 30
8.5
  0
VERTEX
  8
0
 10
140.5670898
 20
35.614841
 30
8.5
  0
SEQEND
  8
0
  0
POLYLINE
  8
0
 62
7
 70
1
 66
1
 10
0.0
 20
0.0
 30
0.0
  0
VERTEX
  8
0
 10
159.6170898
 20
21.614841
 30
8.5
  0
VERTEX
  8
0
 10
173.6170898
 20
21.614841
 30
8.5
  0
VERTEX
  8
0
 10
173.6170898
 20
35.614841
 30
8.5
  0
VERTEX
  8
0
 10
159.6170898
 20
35.614841
 30
8.5
  0
SEQEND
  8
0
  0
POLYLINE
  8
0
 62
7
 70
1
 66
1
 10
0.0
 20
0.0
 30
0.0
  0
VERTEX
  8
0
 10
178.6670898
 20
21.614841
 30
8.5
  0
VERTEX
  8
0
 10
192.6670898
 20
21.614841
 30
8.5
  0
VERTEX
  8
0
 10
192.6670898
 20
35.614841
 30
8.5
  0
VERTEX
  8
0
 10
178.6670898
 20
35.614841
 30
8.5
  0
SEQEND
  8
0
  0
POLYLINE
  8
0
 62
7
 70
1
 66
1
 10
0.0
 20
0.0
 30
0.0
  0
VERTEX
  8
0
 10
197.7170898
 20
21.614841
 30
8.5
  0
VERTEX
  8
0
 10
211.7170898
 20
21.614841
 30
8.5
  0
VERTEX
  8
0
 10
211.7170898
 20
35.614841
 30
8.5
  0
VERTEX
  8
0
 10
197.7170898
 20
35.614841
 30
8.5
  0
SEQEND
  8
0
  0
POLYLINE
  8
0
 62
7
 70
1
 66
1
 10
0.0
 20
0.0
 30
0.0
  0
VERTEX
  8
0
 10
216.7670898
 20
21.614841
 30
8.5
  0
VERTEX
  8
0
 10
230.7670898
 20
21.614841
 30
8.5
  0
VERTEX
  8
0
 10
230.7670898
 20
35.614841
 30
8.5
  0
VERTEX
  8
0
 10
216.7670898
 20
35.614841
 30
8.5
  0
SEQEND
  8
0
  0
POLYLINE
  8
0
 62
7
 70
1
 66
1
 10
0.0
 20
0.0
 30
0.0
  0
VERTEX
  8
0
 10
312.0170898
 20
21.614841
 30
8.5
  0
VERTEX
  8
0
 10
326.0170898
 20
21.614841
 30
8.5
  0
VERTEX
  8
0
 10
326.0170898
 20
35.614841
 30
8.5
  0
VERTEX
  8
0
 10
312.0170898
 20
35.614841
 30
8.5
  0
SEQEND
  8
0
  0
POLYLINE
  8
0
 62
7
 70
1
 66
1
 10
0.0
 20
0.0
 30
0.0
  0
VERTEX
  8
0
 10
7.00605303784
 20
22.010841
 30
8.5
  0
VERTEX
  8
0
 10
5.2060398
 20
22.010841
 30
8.5
  0
VERTEX
  8
0
 10
5.2060398
 20
28.106841
 30
8.5
  0
VERTEX
  8
0
 10
4.2060398
 20
28.106841
 30
8.5
  0
VERTEX
  8
0
 10
4.2060398
 20
30.900841
 30
8.5
  0
VERTEX
  8
0
 10
5.2060398
 20
30.900841
 30
8.5
  0
VERTEX
  8
0
 10
5.2060398
 20
34.304441
 30
8.5
  0
VERTEX
  8
0
 10
7.00605303784
 20
34.304441
 30
8.5
  0
VERTEX
  8
0
 10
10.0540530378
 20
34.304441
 30
8.5
  0
VERTEX
  8
0
 10
11.8608398
 20
34.304441
 30
8.5
  0
VERTEX
  8
0
 10
11.8608398
 20
33.491641
 30
8.5
  0
VERTEX
  8
0
 10
14.3608398
 20
33.491641
 30
8.5
  0
VERTEX
  8
0
 10
14.3608398
 20
35.614841
 30
8.5
  0
VERTEX
  8
0
 10
28.3608398
 20
35.614841
 30
8.5
  0
VERTEX
  8
0
 10
28.3608398
 20
33.491641
 30
8.5
  0
VERTEX
  8
0
 10
30.8604336965
 20
33.491641
 30
8.5
  0
VERTEX
  8
0
 10
30.8604336965
 20
34.304441
 30
8.5
  0
VERTEX
  8
0
 10
32.6672204587
 20
34.304441
 30
8.5
  0
VERTEX
  8
0
 10
35.7152204587
 20
34.304441
 30
8.5
  0
VERTEX
  8
0
 10
37.5152336965
 20
34.304441
 30
8.5
  0
VERTEX
  8
0
 10
37.5152336965
 20
30.900841
 30
8.5
  0
VERTEX
  8
0
 10
38.5152336965
 20
30.900841
 30
8.5
  0
VERTEX
  8
0
 10
38.5152336965
 20
28.106841
 30
8.5
  0
VERTEX
  8
0
 10
37.5152336965
 20
28.106841
 30
8.5
  0
VERTEX
  8
0
 10
37.5152336965
 20
22.010841
 30
8.5
  0
VERTEX
  8
0
 10
35.7152204587
 20
22.010841
 30
8.5
  0
VERTEX
  8
0
 10
35.7152204587
 20
20.842441
 30
8.5
  0
VERTEX
  8
0
 10
32.6672204587
 20
20.842441
 30
8.5
  0
VERTEX
  8
0
 10
32.6672204587
 20
22.010841
 30
8.5
  0
VERTEX
  8
0
 10
30.8604336965
 20
22.010841
 30
8.5
  0
VERTEX
  8
0
 10
30.8604336965
 20
22.7982409634
 30
8.5
  0
VERTEX
  8
0
 10
28.3608398
 20
22.7982409634
 30
8.5
  0
VERTEX
  8
0
 10
28.3608398
 20
21.614841
 30
8.5
  0
VERTEX
  8
0
 10
14.3608398
 20
21.614841
 30
8.5
  0
VERTEX
  8
0
 10
14.3608398
 20
22.7982409634
 30
8.5
  0
VERTEX
  8
0
 10
11.8608398
 20
22.7982409634
 30
8.5
  0
VERTEX
  8
0
 10
11.8608398
 20
22.010841
 30
8.5
  0
VERTEX
  8
0
 10
10.0540530378
 20
22.010841
 30
8.5
  0
VERTEX
  8
0
 10
10.0540530378
 20
20.842441
 30
8.5
  0
VERTEX
  8
0
 10
7.00605303784
 20
20.842441
 30
8.5
  0
SEQEND
  8
0
  0
POLYLINE
  8
0
 62
7
 70
1
 66
1
 10
0.0
 20
0.0
 30
0.0
  0
VERTEX
  8
0
 10
4.8358398
 20
2.564841
 30
8.5
  0
VERTEX
  8
0
 10
18.8358398
 20
2.564841
 30
8.5
  0
VERTEX
  8
0
 10
18.8358398
 20
16.564841
 30
8.5
  0
VERTEX
  8
0
 10
4.8358398
 20
16.564841
 30
8.5
  0
SEQEND
  8
0
  0
POLYLINE
  8
0
 62
7
 70
1
 66
1
 10
0.0
 20
0.0
 30
0.0
  0
VERTEX
  8
0
 10
28.6483398
 20
2.564841
 30
8.5
  0
VERTEX
  8
0
 10
42.6483398
 20
2.564841
 30
8.5
  0
VERTEX
  8
0
 10
42.6483398
 20
16.564841
 30
8.5
  0
VERTEX
  8
0
 10
28.6483398
 20
16.564841
 30
8.5
  0
SEQEND
  8
0
  0
POLYLINE
  8
0
 62
7
 70
1
 66
1
 10
0.0
 20
0.0
 30
0.0
  0
VERTEX
  8
0
 10
52.4608398
 20
2.564841
 30
8.5
  0
VERTEX
  8
0
 10
66.4608398
 20
2.564841
 30
8.5
  0
VERTEX
  8
0
 10
66.4608398
 20
16.564841
 30
8.5
  0
VERTEX
  8
0
 10
52.4608398
 20
16.564841
 30
8.5
  0
SEQEND
  8
0
  0
POLYLINE
  8
0
 62
7
 70
1
 66
1
 10
0.0
 20
0.0
 30
0.0
  0
VERTEX
  8
0
 10
195.3363398
 20
2.564841
 30
8.5
  0
VERTEX
  8
0
 10
209.3363398
 20
2.564841
 30
8.5
  0
VERTEX
  8
0
 10
209.3363398
 20
16.564841
 30
8.5
  0
VERTEX
  8
0
 10
195.3363398
 20
16.564841
 30
8.5
  0
SEQEND
  8
0
  0
POLYLINE
  8
0
 62
7
 70
1
 66
1
 10
0.0
 20
0.0
 30
0.0
  0
VERTEX
  8
0
 10
219.1488398
 20
2.564841
 30
8.5
  0
VERTEX
  8
0
 10
233.1488398
 20
2.564841
 30
8.5
  0
VERTEX
  8
0
 10
233.1488398
 20
16.564841
 30
8.5
  0
VERTEX
  8
0
 10
219.1488398
 20
16.564841
 30
8.5
  0
SEQEND
  8
0
  0
POLYLINE
  8
0
 62
7
 70
1
 66
1
 10
0.0
 20
0.0
 30
0.0
  0
VERTEX
  8
0
 10
242.9613398
 20
2.564841
 30
8.5
  0
VERTEX
  8
0
 10
256.9613398
 20
2.564841
 30
8.5
  0
VERTEX
  8
0
 10
256.9613398
 20
16.564841
 30
8.5
  0
VERTEX
  8
0
 10
242.9613398
 20
16.564841
 30
8.5
  0
SEQEND
  8
0
  0
POLYLINE
  8
0
 62
7
 70
1
 66
1
 10
0.0
 20
0.0
 30
0.0
  0
VERTEX
  8
0
 10
266.7738398
 20
2.564841
 30
8.5
  0
VERTEX
  8
0
 10
280.7738398
 20
2.564841
 30
8.5
  0
VERTEX
  8
0
 10
280.7738398
 20
16.564841
 30
8.5
  0
VERTEX
  8
0
 10
266.7738398
 20
16.564841
 30
8.5
  0
SEQEND
  8
0
  0
POLYLINE
  8
0
 62
7
 70
1
 66
1
 10
0.0
 20
0.0
 30
0.0
  0
VERTEX
  8
0
 10
292.9670898
 20
2.564841
 30
8.5
  0
VERTEX
  8
0
 10
306.9670898
 20
2.564841
 30
8.5
  0
VERTEX
  8
0
 10
306.9670898
 20
16.564841
 30
8.5
  0
VERTEX
  8
0
 10
292.9670898
 20
16.564841
 30
8.5
  0
SEQEND
  8
0
  0
POLYLINE
  8
0
 62
7
 70
1
 66
1
 10
0.0
 20
0.0
 30
0.0
  0
VERTEX
  8
0
 10
312.0170898
 20
2.564841
 30
8.5
  0
VERTEX
  8
0
 10
326.0170898
 20
2.564841
 30
8.5
  0
VERTEX
  8
0
 10
326.0170898
 20
16.564841
 30
8.5
  0
VERTEX
  8
0
 10
312.0170898
 20
16.564841
 30
8.5
  0
SEQEND
  8
0
  0
POLYLINE
  8
0
 62
7
 70
1
 66
1
 10
0.0
 20
0.0
 30
0.0
  0
VERTEX
  8
0
 10
331.0670898
 20
2.564841
 30
8.5
  0
VERTEX
  8
0
 10
345.0670898
 20
2.564841
 30
8.5
  0
VERTEX
  8
0
 10
345.0670898
 20
16.564841
 30
8.5
  0
VERTEX
  8
0
 10
331.0670898
 20
16.564841
 30
8.5
  0
SEQEND
  8
0
  0
POLYLINE
  8
0
 62
7
 70
1
 66
1
 10
0.0
 20
0.0
 30
0.0
  0
VERTEX
  8
0
 10
76.9814116026
 20
11.864841
 30
8.5
  0
VERTEX
  8
0
 10
76.9814116026
 20
9.064841
 30
8.5
  0
VERTEX
  8
0
 10
77.8564116026
 20
9.064841
 30
8.5
  0
VERTEX
  8
0
 10
77.8564116026
 20
2.794841
 30
8.5
  0
VERTEX
  8
0
 10
79.6889116026
 20
2.794841
 30
8.5
  0
VERTEX
  8
0
 10
79.6889116026
 20
1.594841
 30
8.5
  0
VERTEX
  8
0
 10
82.6889116026
 20
1.594841
 30
8.5
  0
VERTEX
  8
0
 10
82.6889116026
 20
2.794841
 30
8.5
  0
VERTEX
  8
0
 10
84.5214116026
 20
2.794841
 30
8.5
  0
VERTEX
  8
0
 10
84.5214116026
 20
7.264841
 30
8.5
  0
VERTEX
  8
0
 10
124.181411603
 20
7.264841
 30
8.5
  0
VERTEX
  8
0
 10
124.181411603
 20
2.564841
 30
8.5
  0
VERTEX
  8
0
 10
131.181411603
 20
2.564841
 30
8.5
  0
VERTEX
  8
0
 10
138.181411603
 20
2.564841
 30
8.5
  0
VERTEX
  8
0
 10
138.181411603
 20
7.264841
 30
8.5
  0
VERTEX
  8
0
 10
177.841411603
 20
7.264841
 30
8.5
  0
VERTEX
  8
0
 10
177.841411603
 20
2.794841
 30
8.5
  0
VERTEX
  8
0
 10
179.673911603
 20
2.794841
 30
8.5
  0
VERTEX
  8
0
 10
179.673911603
 20
1.594841
 30
8.5
  0
VERTEX
  8
0
 10
182.673911603
 20
1.594841
 30
8.5
  0
VERTEX
  8
0
 10
182.673911603
 20
2.794841
 30
8.5
  0
VERTEX
  8
0
 10
184.506411603
 20
2.794841
 30
8.5
  0
VERTEX
  8
0
 10
184.506411603
 20
9.064841
 30
8.5
  0
VERTEX
  8
0
 10
185.381411603
 20
9.064841
 30
8.5
  0
VERTEX
  8
0
 10
185.381411603
 20
11.864841
 30
8.5
  0
VERTEX
  8
0
 10
184.506411603
 20
11.864841
 30
8.5
  0
VERTEX
  8
0
 10
184.506411603
 20
15.094841
 30
8.5
  0
VERTEX
  8
0
 10
177.841411603
 20
15.094841
 30
8.5
  0
VERTEX
  8
0
 10
177.841411603
 20
11.864841
 30
8.5
  0
VERTEX
  8
0
 10
138.181411603
 20
11.864841
 30
8.5
  0
VERTEX
  8
0
 10
138.181411603
 20
16.564841
 30
8.5
  0
VERTEX
  8
0
 10
131.181411603
 20
16.564841
 30
8.5
  0
VERTEX
  8
0
 10
124.181411603
 20
16.564841
 30
8.5
  0
VERTEX
  8
0
 10
124.181411603
 20
11.864841
 30
8.5
  0
VERTEX
  8
0
 10
84.5214116026
 20
11.864841
 30
8.5
  0
VERTEX
  8
0
 10
84.5214116026
 20
15.094841
 30
8.5
  0
VERTEX
  8
0
 10
77.8564116026
 20
15.094841
 30
8.5
  0
VERTEX
  8
0
 10
77.8564116026
 20
11.864841
 30
8.5
  0
SEQEND
  8
0
  0
POLYLINE
  8
0
 62
7
 70
1
 66
1
 10
0.0
 20
0.0
 30
0.0
  0
VERTEX
  8
0
 10
281.402733696
 20
49.950841
 30
8.5
  0
VERTEX
  8
0
 10
281.402733696
 20
47.156841
 30
8.5
  0
VERTEX
  8
0
 10
280.402733696
 20
47.156841
 30
8.5
  0
VERTEX
  8
0
 10
280.402733696
 20
41.060841
 30
8.5
  0
VERTEX
  8
0
 10
278.602720459
 20
41.060841
 30
8.5
  0
VERTEX
  8
0
 10
278.602720459
 20
39.892441
 30
8.5
  0
VERTEX
  8
0
 10
275.554720459
 20
39.892441
 30
8.5
  0
VERTEX
  8
0
 10
275.554720459
 20
41.060841
 30
8.5
  0
VERTEX
  8
0
 10
273.747933697
 20
41.060841
 30
8.5
  0
VERTEX
  8
0
 10
273.747933697
 20
41.8482409634
 30
8.5
  0
VERTEX
  8
0
 10
271.2483398
 20
41.8482409634
 30
8.5
  0
VERTEX
  8
0
 10
271.2483398
 20
40.664841
 30
8.5
  0
VERTEX
  8
0
 10
257.2483398
 20
40.664841
 30
8.5
  0
VERTEX
  8
0
 10
257.2483398
 20
41.8482409634
 30
8.5
  0
VERTEX
  8
0
 10
254.748733697
 20
41.8482409634
 30
8.5
  0
VERTEX
  8
0
 10
254.748733697
 20
41.060841
 30
8.5
  0
VERTEX
  8
0
 10
252.941946934
 20
41.060841
 30
8.5
  0
VERTEX
  8
0
 10
252.941946934
 20
39.892441
 30
8.5
  0
VERTEX
  8
0
 10
249.893946934
 20
39.892441
 30
8.5
  0
VERTEX
  8
0
 10
249.893946934
 20
41.060841
 30
8.5
  0
VERTEX
  8
0
 10
248.093933696
 20
41.060841
 30
8.5
  0
VERTEX
  8
0
 10
248.093933696
 20
47.156841
 30
8.5
  0
VERTEX
  8
0
 10
247.093933696
 20
47.156841
 30
8.5
  0
VERTEX
  8
0
 10
247.093933696
 20
49.950841
 30
8.5
  0
VERTEX
  8
0
 10
248.093933696
 20
49.950841
 30
8.5
  0
VERTEX
  8
0
 10
248.093933696
 20
53.354441
 30
8.5
  0
VERTEX
  8
0
 10
249.893946934
 20
53.354441
 30
8.5
  0
VERTEX
  8
0
 10
252.941946934
 20
53.354441
 30
8.5
  0
VERTEX
  8
0
 10
254.748733697
 20
53.354441
 30
8.5
  0
VERTEX
  8
0
 10
254.748733697
 20
52.541641
 30
8.5
  0
VERTEX
  8
0
 10
257.2483398
 20
52.541641
 30
8.5
  0
VERTEX
  8
0
 10
257.2483398
 20
54.664841
 30
8.5
  0
VERTEX
  8
0
 10
271.2483398
 20
54.664841
 30
8.5
  0
VERTEX
  8
0
 10
271.2483398
 20
52.541641
 30
8.5
  0
VERTEX
  8
0
 10
273.747933697
 20
52.541641
 30
8.5
  0
VERTEX
  8
0
 10
273.747933697
 20
53.354441
 30
8.5
  0
VERTEX
  8
0
 10
275.554720459
 20
53.354441
 30
8.5
  0
VERTEX
  8
0
 10
278.602720459
 20
53.354441
 30
8.5
  0
VERTEX
  8
0
 10
280.402733696
 20
53.354441
 30
8.5
  0
VERTEX
  8
0
 10
280.402733696
 20
49.950841
 30
8.5
  0
SEQEND
  8
0
  0
POLYLINE
  8
0
 62
7
 70
1
 66
1
 10
0.0
 20
0.0
 30
0.0
  0
VERTEX
  8
0
 10
9.5983398
 20
40.664841
 30
8.5
  0
VERTEX
  8
0
 10
23.5983398
 20
40.664841
 30
8.5
  0
VERTEX
  8
0
 10
23.5983398
 20
54.664841
 30
8.5
  0
VERTEX
  8
0
 10
9.5983398
 20
54.664841
 30
8.5
  0
SEQEND
  8
0
  0
POLYLINE
  8
0
 62
7
 70
1
 66
1
 10
0.0
 20
0.0
 30
0.0
  0
VERTEX
  8
0
 10
35.7920898
 20
40.664841
 30
8.5
  0
VERTEX
  8
0
 10
49.7920898
 20
40.664841
 30
8.5
  0
VERTEX
  8
0
 10
49.7920898
 20
54.664841
 30
8.5
  0
VERTEX
  8
0
 10
35.7920898
 20
54.664841
 30
8.5
  0
SEQEND
  8
0
  0
POLYLINE
  8
0
 62
7
 70
1
 66
1
 10
0.0
 20
0.0
 30
0.0
  0
VERTEX
  8
0
 10
54.8420898
 20
40.664841
 30
8.5
  0
VERTEX
  8
0
 10
68.8420898
 20
40.664841
 30
8.5
  0
VERTEX
  8
0
 10
68.8420898
 20
54.664841
 30
8.5
  0
VERTEX
  8
0
 10
54.8420898
 20
54.664841
 30
8.5
  0
SEQEND
  8
0
  0
POLYLINE
  8
0
 62
7
 70
1
 66
1
 10
0.0
 20
0.0
 30
0.0
  0
VERTEX
  8
0
 10
73.8920898
 20
40.664841
 30
8.5
  0
VERTEX
  8
0
 10
87.8920898
 20
40.664841
 30
8.5
  0
VERTEX
  8
0
 10
87.8920898
 20
54.664841
 30
8.5
  0
VERTEX
  8
0
 10
73.8920898
 20
54.664841
 30
8.5
  0
SEQEND
  8
0
  0
POLYLINE
  8
0
 62
7
 70
1
 66
1
 10
0.0
 20
0.0
 30
0.0
  0
VERTEX
  8
0
 10
92.9420898
 20
40.664841
 30
8.5
  0
VERTEX
  8
0
 10
106.9420898
 20
40.664841
 30
8.5
  0
VERTEX
  8
0
 10
106.9420898
 20
54.664841
 30
8.5
  0
VERTEX
  8
0
 10
92.9420898
 20
54.664841
 30
8.5
  0
SEQEND
  8
0
  0
POLYLINE
  8
0
 62
7
 70
1
 66
1
 10
0.0
 20
0.0
 30
0.0
  0
VERTEX
  8
0
 10
111.9920898
 20
40.664841
 30
8.5
  0
VERTEX
  8
0
 10
125.9920898
 20
40.664841
 30
8.5
  0
VERTEX
  8
0
 10
125.9920898
 20
54.664841
 30
8.5
  0
VERTEX
  8
0
 10
111.9920898
 20
54.664841
 30
8.5
  0
SEQEND
  8
0
  0
POLYLINE
  8
0
 62
7
 70
1
 66
1
 10
0.0
 20
0.0
 30
0.0
  0
VERTEX
  8
0
 10
131.0420898
 20
40.664841
 30
8.5
  0
VERTEX
  8
0
 10
145.0420898
 20
40.664841
 30
8.5
  0
VERTEX
  8
0
 10
145.0420898
 20
54.664841
 30
8.5
  0
VERTEX
  8
0
 10
131.0420898
 20
54.664841
 30
8.5
  0
SEQEND
  8
0
  0
POLYLINE
  8
0
 62
7
 70
1
 66
1
 10
0.0
 20
0.0
 30
0.0
  0
VERTEX
  8
0
 10
150.0920898
 20
40.664841
 30
8.5
  0
VERTEX
  8
0
 10
164.0920898
 20
40.664841
 30
8.5
  0
VERTEX
  8
0
 10
164.0920898
 20
54.664841
 30
8.5
  0
VERTEX
  8
0
 10
150.0920898
 20
54.664841
 30
8.5
  0
SEQEND
  8
0
  0
POLYLINE
  8
0
 62
7
 70
1
 66
1
 10
0.0
 20
0.0
 30
0.0
  0
VERTEX
  8
0
 10
169.1420898
 20
40.664841
 30
8.5
  0
VERTEX
  8
0
 10
183.1420898
 20
40.664841
 30
8.5
  0
VERTEX
  8
0
 10
183.1420898
 20
54.664841
 30
8.5
  0
VERTEX
  8
0
 10
169.1420898
 20
54.664841
 30
8.5
  0
SEQEND
  8
0
  0
POLYLINE
  8
0
 62
7
 70
1
 66
1
 10
0.0
 20
0.0
 30
0.0
  0
VERTEX
  8
0
 10
188.1920898
 20
40.664841
 30
8.5
  0
VERTEX
  8
0
 10
202.1920898
 20
40.664841
 30
8.5
  0
VERTEX
  8
0
 10
202.1920898
 20
54.664841
 30
8.5
  0
VERTEX
  8
0
 10
188.1920898
 20
54.664841
 30
8.5
  0
SEQEND
  8
0
  0
POLYLINE
  8
0
 62
7
 70
1
 66
1
 10
0.0
 20
0.0
 30
0.0
  0
VERTEX
  8
0
 10
207.2420898
 20
40.664841
 30
8.5
  0
VERTEX
  8
0
 10
221.2420898
 20
40.664841
 30
8.5
  0
VERTEX
  8
0
 10
221.2420898
 20
54.664841
 30
8.5
  0
VERTEX
  8
0
 10
207.2420898
 20
54.664841
 30
8.5
  0
SEQEND
  8
0
  0
POLYLINE
  8
0
 62
7
 70
1
 66
1
 10
0.0
 20
0.0
 30
0.0
  0
VERTEX
  8
0
 10
226.2920898
 20
40.664841
 30
8.5
  0
VERTEX
  8
0
 10
240.2920898
 20
40.664841
 30
8.5
  0
VERTEX
  8
0
 10
240.2920898
 20
54.664841
 30
8.5
  0
VERTEX
  8
0
 10
226.2920898
 20
54.664841
 30
8.5
  0
SEQEND
  8
0
  0
POLYLINE
  8
0
 62
7
 70
1
 66
1
 10
0.0
 20
0.0
 30
0.0
  0
VERTEX
  8
0
 10
2.4545898
 20
78.764841
 30
8.5
  0
VERTEX
  8
0
 10
16.4545898
 20
78.764841
 30
8.5
  0
VERTEX
  8
0
 10
16.4545898
 20
92.764841
 30
8.5
  0
VERTEX
  8
0
 10
2.4545898
 20
92.764841
 30
8.5
  0
SEQEND
  8
0
  0
POLYLINE
  8
0
 62
7
 70
1
 66
1
 10
0.0
 20
0.0
 30
0.0
  0
VERTEX
  8
0
 10
21.5045898
 20
78.764841
 30
8.5
  0
VERTEX
  8
0
 10
35.5045898
 20
78.764841
 30
8.5
  0
VERTEX
  8
0
 10
35.5045898
 20
92.764841
 30
8.5
  0
VERTEX
  8
0
 10
21.5045898
 20
92.764841
 30
8.5
  0
SEQEND
  8
0
  0
POLYLINE
  8
0
 62
7
 70
1
 66
1
 10
0.0
 20
0.0
 30
0.0
  0
VERTEX
  8
0
 10
40.5545898
 20
78.764841
 30
8.5
  0
VERTEX
  8
0
 10
54.5545898
 20
78.764841
 30
8.5
  0
VERTEX
  8
0
 10
54.5545898
 20
92.764841
 30
8.5
  0
VERTEX
  8
0
 10
40.5545898
 20
92.764841
 30
8.5
  0
SEQEND
  8
0
  0
POLYLINE
  8
0
 62
7
 70
1
 66
1
 10
0.0
 20
0.0
 30
0.0
  0
VERTEX
  8
0
 10
59.6045898
 20
78.764841
 30
8.5
  0
VERTEX
  8
0
 10
73.6045898
 20
78.764841
 30
8.5
  0
VERTEX
  8
0
 10
73.6045898
 20
92.764841
 30
8.5
  0
VERTEX
  8
0
 10
59.6045898
 20
92.764841
 30
8.5
  0
SEQEND
  8
0
  0
POLYLINE
  8
0
 62
7
 70
1
 66
1
 10
0.0
 20
0.0
 30
0.0
  0
VERTEX
  8
0
 10
78.6545898
 20
78.764841
 30
8.5
  0
VERTEX
  8
0
 10
92.6545898
 20
78.764841
 30
8.5
  0
VERTEX
  8
0
 10
92.6545898
 20
92.764841
 30
8.5
  0
VERTEX
  8
0
 10
78.6545898
 20
92.764841
 30
8.5
  0
SEQEND
  8
0
  0
POLYLINE
  8
0
 62
7
 70
1
 66
1
 10
0.0
 20
0.0
 30
0.0
  0
VERTEX
  8
0
 10
97.7045898
 20
78.764841
 30
8.5
  0
VERTEX
  8
0
 10
111.7045898
 20
78.764841
 30
8.5
  0
VERTEX
  8
0
 10
111.7045898
 20
92.764841
 30
8.5
  0
VERTEX
  8
0
 10
97.7045898
 20
92.764841
 30
8.5
  0
SEQEND
  8
0
  0
POLYLINE
  8
0
 62
7
 70
1
 66
1
 10
0.0
 20
0.0
 30
0.0
  0
VERTEX
  8
0
 10
116.7545898
 20
78.764841
 30
8.5
  0
VERTEX
  8
0
 10
130.7545898
 20
78.764841
 30
8.5
  0
VERTEX
  8
0
 10
130.7545898
 20
92.764841
 30
8.5
  0
VERTEX
  8
0
 10
116.7545898
 20
92.764841
 30
8.5
  0
SEQEND
  8
0
  0
POLYLINE
  8
0
 62
7
 70
1
 66
1
 10
0.0
 20
0.0
 30
0.0
  0
VERTEX
  8
0
 10
135.8045898
 20
78.764841
 30
8.5
  0
VERTEX
  8
0
 10
149.8045898
 20
78.764841
 30
8.5
  0
VERTEX
  8
0
 10
149.8045898
 20
92.764841
 30
8.5
  0
VERTEX
  8
0
 10
135.8045898
 20
92.764841
 30
8.5
  0
SEQEND
  8
0
  0
POLYLINE
  8
0
 62
7
 70
1
 66
1
 10
0.0
 20
0.0
 30
0.0
  0
VERTEX
  8
0
 10
154.8545898
 20
78.764841
 30
8.5
  0
VERTEX
  8
0
 10
168.8545898
 20
78.764841
 30
8.5
  0
VERTEX
  8
0
 10
168.8545898
 20
92.764841
 30
8.5
  0
VERTEX
  8
0
 10
154.8545898
 20
92.764841
 30
8.5
  0
SEQEND
  8
0
  0
POLYLINE
  8
0
 62
7
 70
1
 66
1
 10
0.0
 20
0.0
 30
0.0
  0
VERTEX
  8
0
 10
173.9045898
 20
78.764841
 30
8.5
  0
VERTEX
  8
0
 10
187.9045898
 20
78.764841
 30
8.5
  0
VERTEX
  8
0
 10
187.9045898
 20
92.764841
 30
8.5
  0
VERTEX
  8
0
 10
173.9045898
 20
92.764841
 30
8.5
  0
SEQEND
  8
0
  0
POLYLINE
  8
0
 62
7
 70
1
 66
1
 10
0.0
 20
0.0
 30
0.0
  0
VERTEX
  8
0
 10
192.9545898
 20
78.764841
 30
8.5
  0
VERTEX
  8
0
 10
206.9545898
 20
78.764841
 30
8.5
  0
VERTEX
  8
0
 10
206.9545898
 20
92.764841
 30
8.5
  0
VERTEX
  8
0
 10
192.9545898
 20
92.764841
 30
8.5
  0
SEQEND
  8
0
  0
POLYLINE
  8
0
 62
7
 70
1
 66
1
 10
0.0
 20
0.0
 30
0.0
  0
VERTEX
  8
0
 10
212.0045898
 20
78.764841
 30
8.5
  0
VERTEX
  8
0
 10
226.0045898
 20
78.764841
 30
8.5
  0
VERTEX
  8
0
 10
226.0045898
 20
92.764841
 30
8.5
  0
VERTEX
  8
0
 10
212.0045898
 20
92.764841
 30
8.5
  0
SEQEND
  8
0
  0
POLYLINE
  8
0
 62
7
 70
1
 66
1
 10
0.0
 20
0.0
 30
0.0
  0
VERTEX
  8
0
 10
231.0545898
 20
78.764841
 30
8.5
  0
VERTEX
  8
0
 10
245.0545898
 20
78.764841
 30
8.5
  0
VERTEX
  8
0
 10
245.0545898
 20
92.764841
 30
8.5
  0
VERTEX
  8
0
 10
231.0545898
 20
92.764841
 30
8.5
  0
SEQEND
  8
0
  0
POLYLINE
  8
0
 62
7
 70
1
 66
1
 10
0.0
 20
0.0
 30
0.0
  0
VERTEX
  8
0
 10
252.252303038
 20
91.454441
 30
8.5
  0
VERTEX
  8
0
 10
255.300303038
 20
91.454441
 30
8.5
  0
VERTEX
  8
0
 10
257.1070898
 20
91.454441
 30
8.5
  0
VERTEX
  8
0
 10
257.1070898
 20
90.641641
 30
8.5
  0
VERTEX
  8
0
 10
259.6070898
 20
90.641641
 30
8.5
  0
VERTEX
  8
0
 10
259.6070898
 20
92.764841
 30
8.5
  0
VERTEX
  8
0
 10
273.6070898
 20
92.764841
 30
8.5
  0
VERTEX
  8
0
 10
273.6070898
 20
90.641641
 30
8.5
  0
VERTEX
  8
0
 10
276.106683696
 20
90.641641
 30
8.5
  0
VERTEX
  8
0
 10
276.106683696
 20
91.454441
 30
8.5
  0
VERTEX
  8
0
 10
277.913470459
 20
91.454441
 30
8.5
  0
VERTEX
  8
0
 10
280.961470459
 20
91.454441
 30
8.5
  0
VERTEX
  8
0
 10
282.761483697
 20
91.454441
 30
8.5
  0
VERTEX
  8
0
 10
282.761483697
 20
88.050841
 30
8.5
  0
VERTEX
  8
0
 10
283.761483697
 20
88.050841
 30
8.5
  0
VERTEX
  8
0
 10
283.761483697
 20
85.256841
 30
8.5
  0
VERTEX
  8
0
 10
282.761483697
 20
85.256841
 30
8.5
  0
VERTEX
  8
0
 10
282.761483697
 20
79.160841
 30
8.5
  0
VERTEX
  8
0
 10
280.961470459
 20
79.160841
 30
8.5
  0
VERTEX
  8
0
 10
280.961470459
 20
77.992441
 30
8.5
  0
VERTEX
  8
0
 10
277.913470459
 20
77.992441
 30
8.5
  0
VERTEX
  8
0
 10
277.913470459
 20
79.160841
 30
8.5
  0
VERTEX
  8
0
 10
276.106683696
 20
79.160841
 30
8.5
  0
VERTEX
  8
0
 10
276.106683696
 20
79.9482409634
 30
8.5
  0
VERTEX
  8
0
 10
273.6070898
 20
79.9482409634
 30
8.5
  0
VERTEX
  8
0
 10
273.6070898
 20
78.764841
 30
8.5
  0
VERTEX
  8
0
 10
259.6070898
 20
78.764841
 30
8.5
  0
VERTEX
  8
0
 10
259.6070898
 20
79.9482409634
 30
8.5
  0
VERTEX
  8
0
 10
257.1070898
 20
79.9482409634
 30
8.5
  0
VERTEX
  8
0
 10
257.1070898
 20
79.160841
 30
8.5
  0
VERTEX
  8
0
 10
255.300303038
 20
79.160841
 30
8.5
  0
VERTEX
  8
0
 10
255.300303038
 20
77.992441
 30
8.5
  0
VERTEX
  8
0
 10
252.252303038
 20
77.992441
 30
8.5
  0
VERTEX
  8
0
 10
252.252303038
 20
79.160841
 30
8.5
  0
VERTEX
  8
0
 10
250.4522898
 20
79.160841
 30
8.5
  0
VERTEX
  8
0
 10
250.4522898
 20
85.256841
 30
8.5
  0
VERTEX
  8
0
 10
249.4522898
 20
85.256841
 30
8.5
  0
VERTEX
  8
0
 10
249.4522898
 20
88.050841
 30
8.5
  0
VERTEX
  8
0
 10
250.4522898
 20
88.050841
 30
8.5
  0
VERTEX
  8
0
 10
250.4522898
 20
91.454441
 30
8.5
  0
SEQEND
  8
0
  0
POLYLINE
  8
0
 62
7
 70
1
 66
1
 10
0.0
 20
0.0
 30
0.0
  0
VERTEX
  8
0
 10
21.5045898
 20
102.577341
 30
8.5
  0
VERTEX
  8
0
 10
35.5045898
 20
102.577341
 30
8.5
  0
VERTEX
  8
0
 10
35.5045898
 20
116.577341
 30
8.5
  0
VERTEX
  8
0
 10
21.5045898
 20
116.577341
 30
8.5
  0
SEQEND
  8
0
  0
POLYLINE
  8
0
 62
7
 70
1
 66
1
 10
0.0
 20
0.0
 30
0.0
  0
VERTEX
  8
0
 10
2.4545898
 20
102.577341
 30
8.5
  0
VERTEX
  8
0
 10
16.4545898
 20
102.577341
 30
8.5
  0
VERTEX
  8
0
 10
16.4545898
 20
116.577341
 30
8.5
  0
VERTEX
  8
0
 10
2.4545898
 20
116.577341
 30
8.5
  0
SEQEND
  8
0
  0
POLYLINE
  8
0
 62
7
 70
1
 66
1
 10
0.0
 20
0.0
 30
0.0
  0
VERTEX
  8
0
 10
40.5545898
 20
102.577341
 30
8.5
  0
VERTEX
  8
0
 10
54.5545898
 20
102.577341
 30
8.5
  0
VERTEX
  8
0
 10
54.5545898
 20
116.577341
 30
8.5
  0
VERTEX
  8
0
 10
40.5545898
 20
116.577341
 30
8.5
  0
SEQEND
  8
0
  0
POLYLINE
  8
0
 62
7
 70
1
 66
1
 10
0.0
 20
0.0
 30
0.0
  0
VERTEX
  8
0
 10
59.6045898
 20
102.577341
 30
8.5
  0
VERTEX
  8
0
 10
73.6045898
 20
102.577341
 30
8.5
  0
VERTEX
  8
0
 10
73.6045898
 20
116.577341
 30
8.5
  0
VERTEX
  8
0
 10
59.6045898
 20
116.577341
 30
8.5
  0
SEQEND
  8
0
  0
POLYLINE
  8
0
 62
7
 70
1
 66
1
 10
0.0
 20
0.0
 30
0.0
  0
VERTEX
  8
0
 10
78.6545898
 20
102.577341
 30
8.5
  0
VERTEX
  8
0
 10
92.6545898
 20
102.577341
 30
8.5
  0
VERTEX
  8
0
 10
92.6545898
 20
116.577341
 30
8.5
  0
VERTEX
  8
0
 10
78.6545898
 20
116.577341
 30
8.5
  0
SEQEND
  8
0
  0
POLYLINE
  8
0
 62
7
 70
1
 66
1
 10
0.0
 20
0.0
 30
0.0
  0
VERTEX
  8
0
 10
107.2070898
 20
102.577341
 30
8.5
  0
VERTEX
  8
0
 10
121.2070898
 20
102.577341
 30
8.5
  0
VERTEX
  8
0
 10
121.2070898
 20
116.577341
 30
8.5
  0
VERTEX
  8
0
 10
107.2070898
 20
116.577341
 30
8.5
  0
SEQEND
  8
0
  0
POLYLINE
  8
0
 62
7
 70
1
 66
1
 10
0.0
 20
0.0
 30
0.0
  0
VERTEX
  8
0
 10
145.3070898
 20
102.577341
 30
8.5
  0
VERTEX
  8
0
 10
159.3070898
 20
102.577341
 30
8.5
  0
VERTEX
  8
0
 10
159.3070898
 20
116.577341
 30
8.5
  0
VERTEX
  8
0
 10
145.3070898
 20
116.577341
 30
8.5
  0
SEQEND
  8
0
  0
POLYLINE
  8
0
 62
7
 70
1
 66
1
 10
0.0
 20
0.0
 30
0.0
  0
VERTEX
  8
0
 10
126.2570898
 20
102.577341
 30
8.5
  0
VERTEX
  8
0
 10
140.2570898
 20
102.577341
 30
8.5
  0
VERTEX
  8
0
 10
140.2570898
 20
116.577341
 30
8.5
  0
VERTEX
  8
0
 10
126.2570898
 20
116.577341
 30
8.5
  0
SEQEND
  8
0
  0
POLYLINE
  8
0
 62
7
 70
1
 66
1
 10
0.0
 20
0.0
 30
0.0
  0
VERTEX
  8
0
 10
164.3570898
 20
102.577341
 30
8.5
  0
VERTEX
  8
0
 10
178.3570898
 20
102.577341
 30
8.5
  0
VERTEX
  8
0
 10
178.3570898
 20
116.577341
 30
8.5
  0
VERTEX
  8
0
 10
164.3570898
 20
116.577341
 30
8.5
  0
SEQEND
  8
0
  0
POLYLINE
  8
0
 62
7
 70
1
 66
1
 10
0.0
 20
0.0
 30
0.0
  0
VERTEX
  8
0
 10
212.0045898
 20
102.577341
 30
8.5
  0
VERTEX
  8
0
 10
226.0045898
 20
102.577341
 30
8.5
  0
VERTEX
  8
0
 10
226.0045898
 20
116.577341
 30
8.5
  0
VERTEX
  8
0
 10
212.0045898
 20
116.577341
 30
8.5
  0
SEQEND
  8
0
  0
POLYLINE
  8
0
 62
7
 70
1
 66
1
 10
0.0
 20
0.0
 30
0.0
  0
VERTEX
  8
0
 10
192.9545898
 20
102.577341
 30
8.5
  0
VERTEX
  8
0
 10
206.9545898
 20
102.577341
 30
8.5
  0
VERTEX
  8
0
 10
206.9545898
 20
116.577341
 30
8.5
  0
VERTEX
  8
0
 10
192.9545898
 20
116.577341
 30
8.5
  0
SEQEND
  8
0
  0
POLYLINE
  8
0
 62
7
 70
1
 66
1
 10
0.0
 20
0.0
 30
0.0
  0
VERTEX
  8
0
 10
231.0545898
 20
102.577341
 30
8.5
  0
VERTEX
  8
0
 10
245.0545898
 20
102.577341
 30
8.5
  0
VERTEX
  8
0
 10
245.0545898
 20
116.577341
 30
8.5
  0
VERTEX
  8
0
 10
231.0545898
 20
116.577341
 30
8.5
  0
SEQEND
  8
0
  0
POLYLINE
  8
0
 62
7
 70
1
 66
1
 10
0.0
 20
0.0
 30
0.0
  0
VERTEX
  8
0
 10
250.1045898
 20
102.577341
 30
8.5
  0
VERTEX
  8
0
 10
264.1045898
 20
102.577341
 30
8.5
  0
VERTEX
  8
0
 10
264.1045898
 20
116.577341
 30
8.5
  0
VERTEX
  8
0
 10
250.1045898
 20
116.577341
 30
8.5
  0
SEQEND
  8
0
  0
POLYLINE
  8
0
 62
7
 70
1
 66
1
 10
0.0
 20
0.0
 30
0.0
  0
VERTEX
  8
0
 10
269.1545898
 20
102.577341
 30
8.5
  0
VERTEX
  8
0
 10
283.1545898
 20
102.577341
 30
8.5
  0
VERTEX
  8
0
 10
283.1545898
 20
116.577341
 30
8.5
  0
VERTEX
  8
0
 10
269.1545898
 20
116.577341
 30
8.5
  0
SEQEND
  8
0
  0
POLYLINE
  8
0
 62
7
 70
1
 66
1
 10
0.0
 20
0.0
 30
0.0
  0
VERTEX
  8
0
 10
-0.0704102
 20
119.102341
 30
8.5
  0
VERTEX
  8
0
 10
347.5920898
 20
119.102341
 30
8.5
  0
VERTEX
  8
0
 10
347.5920898
 20
0.039841
 30
8.5
  0
VERTEX
  8
0
 10
-0.0704102
 20
0.039841
 30
8.5
  0
SEQEND
  8
0
  0
POLYLINE
  8
0
 62
7
 70
1
 66
1
 10
0.0
 20
0.0
 30
0.0
  0
VERTEX
  8
0
 10
292.9670898
 20
97.814841
 30
8.5
  0
VERTEX
  8
0
 10
306.9670898
 20
97.814841
 30
8.5
  0
VERTEX
  8
0
 10
306.9670898
 20
111.814841
 30
8.5
  0
VERTEX
  8
0
 10
292.9670898
 20
111.814841
 30
8.5
  0
SEQEND
  8
0
  0
POLYLINE
  8
0
 62
7
 70
1
 66
1
 10
0.0
 20
0.0
 30
0.0
  0
VERTEX
  8
0
 10
312.0170898
 20
97.814841
 30
8.5
  0
VERTEX
  8
0
 10
326.0170898
 20
97.814841
 30
8.5
  0
VERTEX
  8
0
 10
326.0170898
 20
111.814841
 30
8.5
  0
VERTEX
  8
0
 10
312.0170898
 20
111.814841
 30
8.5
  0
SEQEND
  8
0
  0
POLYLINE
  8
0
 62
7
 70
1
 66
1
 10
0.0
 20
0.0
 30
0.0
  0
VERTEX
  8
0
 10
331.0670898
 20
97.814841
 30
8.5
  0
VERTEX
  8
0
 10
345.0670898
 20
97.814841
 30
8.5
  0
VERTEX
  8
0
 10
345.0670898
 20
111.814841
 30
8.5
  0
VERTEX
  8
0
 10
331.0670898
 20
111.814841
 30
8.5
  0
SEQEND
  8
0
  0
POLYLINE
  8
0
 62
7
 70
1
 66
1
 10
0.0
 20
0.0
 30
0.0
  0
VERTEX
  8
0
 10
312.0170898
 20
78.764841
 30
8.5
  0
VERTEX
  8
0
 10
326.0170898
 20
78.764841
 30
8.5
  0
VERTEX
  8
0
 10
326.0170898
 20
92.764841
 30
8.5
  0
VERTEX
  8
0
 10
312.0170898
 20
92.764841
 30
8.5
  0
SEQEND
  8
0
  0
POLYLINE
  8
0
 62
7
 70
1
 66
1
 10
0.0
 20
0.0
 30
0.0
  0
VERTEX
  8
0
 10
292.9670898
 20
78.764841
 30
8.5
  0
VERTEX
  8
0
 10
306.9670898
 20
78.764841
 30
8.5
  0
VERTEX
  8
0
 10
306.9670898
 20
92.764841
 30
8.5
  0
VERTEX
  8
0
 10
292.9670898
 20
92.764841
 30
8.5
  0
SEQEND
  8
0
  0
POLYLINE
  8
0
 62
7
 70
1
 66
1
 10
0.0
 20
0.0
 30
0.0
  0
VERTEX
  8
0
 10
331.0670898
 20
78.764841
 30
8.5
  0
VERTEX
  8
0
 10
345.0670898
 20
78.764841
 30
8.5
  0
VERTEX
  8
0
 10
345.0670898
 20
92.764841
 30
8.5
  0
VERTEX
  8
0
 10
331.0670898
 20
92.764841
 30
8.5
  0
SEQEND
  8
0
  0
CIRCLE
  8
0
 62
7
 10
338.036346392
 20
95.2824068417
 30
8.5
 40
1.0
  0
ENDBLK
  0
ENDSEC
  0
SECTION
  2
ENTITIES
  0
INSERT
  2
SKETCH038
  8
0
 62
7
 10
0.0
 20
0.0
 30
0.0
  0
ENDSEC
  0
EOF
